<svg xmlns="http://www.w3.org/2000/svg" width="128" height="128" viewBox="0 0 128 128" role="img" aria-label="GoodNight Guard">
  <rect width="128" height="128" rx="28" fill="#020617"/>
  <path d="M88 76.5c-21.1 0-38.2-17.1-38.2-38.2 0-5.5 1.2-10.8 3.3-15.5C34.5 28 21 45 21 65.2 21 88.4 39.8 107 63 107c17.9 0 33.2-11.2 39.2-27-4.4 2.1-9.2 3.3-14.2 3.3Z" fill="#818cf8"/>
  <path d="M88 76.5c-21.1 0-38.2-17.1-38.2-38.2 0-5.5 1.2-10.8 3.3-15.5C34.5 28 21 45 21 65.2 21 88.4 39.8 107 63 107c17.9 0 33.2-11.2 39.2-27-4.4 2.1-9.2 3.3-14.2 3.3Z" fill="none" stroke="#c7d2fe" stroke-width="4" stroke-linejoin="round"/>
</svg>
