<svg xmlns="http://www.w3.org/2000/svg" width="1200" height="680" viewBox="0 0 1200 680" role="img" aria-labelledby="title desc">
  <title id="title">Calm bedtime browser boundary illustration</title>
  <desc id="desc">A quiet desk with a browser window, clock, and soft gate mark for a bedtime website boundary.</desc>
  <rect width="1200" height="680" fill="#f7f7fb"/>
  <circle cx="250" cy="140" r="150" fill="#eef2ff"/>
  <circle cx="940" cy="150" r="120" fill="#ecfdf5"/>
  <rect x="165" y="150" width="650" height="390" rx="32" fill="#ffffff" stroke="#dbe3ef" stroke-width="4"/>
  <rect x="165" y="150" width="650" height="74" rx="32" fill="#f8fafc"/>
  <circle cx="215" cy="188" r="10" fill="#fda4af"/>
  <circle cx="249" cy="188" r="10" fill="#fbbf24"/>
  <circle cx="283" cy="188" r="10" fill="#86efac"/>
  <rect x="225" y="280" width="275" height="30" rx="15" fill="#c7d2fe"/>
  <rect x="225" y="334" width="420" height="18" rx="9" fill="#e2e8f0"/>
  <rect x="225" y="378" width="340" height="18" rx="9" fill="#e2e8f0"/>
  <rect x="225" y="442" width="175" height="50" rx="16" fill="#4f46e5"/>
  <rect x="510" y="262" width="210" height="210" rx="36" fill="#eef2ff" stroke="#c7d2fe" stroke-width="4"/>
  <path d="M574 352v-42c0-38 23-65 61-65s61 27 61 65v42" fill="none" stroke="#4f46e5" stroke-width="16" stroke-linecap="round"/>
  <rect x="552" y="342" width="126" height="98" rx="24" fill="#4f46e5"/>
  <circle cx="615" cy="389" r="13" fill="#ffffff"/>
  <rect x="607" y="399" width="16" height="24" rx="8" fill="#ffffff"/>
  <rect x="850" y="260" width="190" height="190" rx="95" fill="#ffffff" stroke="#dbe3ef" stroke-width="4"/>
  <circle cx="945" cy="355" r="64" fill="#f8fafc" stroke="#cbd5e1" stroke-width="4"/>
  <path d="M945 315v44l32 24" fill="none" stroke="#475569" stroke-width="10" stroke-linecap="round"/>
  <path d="M1050 520c-100 55-238 66-360 37" fill="none" stroke="#c7d2fe" stroke-width="8" stroke-linecap="round"/>
</svg>
