<svg xmlns="http://www.w3.org/2000/svg" width="1000" height="520" viewBox="0 0 1000 520" role="img" aria-labelledby="title desc">
  <title id="title">Gentle bedtime commitment spot illustration</title>
  <desc id="desc">A calm note card and soft gate mark representing a kind bedtime block-page commitment.</desc>
  <rect width="1000" height="520" rx="36" fill="#fbfbff"/>
  <rect x="210" y="105" width="580" height="310" rx="34" fill="#ffffff" stroke="#dbe3ef" stroke-width="4"/>
  <rect x="270" y="165" width="245" height="24" rx="12" fill="#c7d2fe"/>
  <rect x="270" y="226" width="380" height="18" rx="9" fill="#e2e8f0"/>
  <rect x="270" y="276" width="320" height="18" rx="9" fill="#e2e8f0"/>
  <rect x="270" y="342" width="165" height="46" rx="16" fill="#4f46e5"/>
  <rect x="635" y="175" width="92" height="112" rx="24" fill="#eef2ff" stroke="#c7d2fe" stroke-width="4"/>
  <path d="M660 225v-24c0-17 11-30 29-30s29 13 29 30v24" fill="none" stroke="#4f46e5" stroke-width="9" stroke-linecap="round"/>
  <rect x="653" y="221" width="60" height="48" rx="14" fill="#4f46e5"/>
  <path d="M194 385c-40-50-35-115 12-160" fill="none" stroke="#bbf7d0" stroke-width="12" stroke-linecap="round"/>
  <path d="M808 142c42 42 52 94 28 156" fill="none" stroke="#fed7aa" stroke-width="12" stroke-linecap="round"/>
  <circle cx="200" cy="214" r="14" fill="#86efac"/>
  <circle cx="836" cy="312" r="14" fill="#fbbf24"/>
</svg>
