<svg xmlns="http://www.w3.org/2000/svg" width="1200" height="680" viewBox="0 0 1200 680" role="img" aria-labelledby="title desc">
  <title id="title">Local-first privacy illustration</title>
  <desc id="desc">A laptop and local storage boundary with a lock and FocusGate mark.</desc>
  <rect width="1200" height="680" fill="#f7f7fb"/>
  <circle cx="260" cy="150" r="145" fill="#eef2ff"/>
  <circle cx="930" cy="160" r="120" fill="#ecfdf5"/>
  <rect x="230" y="170" width="740" height="380" rx="36" fill="#ffffff" stroke="#dbe3ef" stroke-width="4"/>
  <rect x="300" y="230" width="600" height="250" rx="26" fill="#f8fafc" stroke="#cbd5e1" stroke-width="4"/>
  <rect x="360" y="285" width="180" height="24" rx="12" fill="#c7d2fe"/>
  <rect x="360" y="340" width="300" height="18" rx="9" fill="#dbe3ef"/>
  <rect x="360" y="385" width="240" height="18" rx="9" fill="#dbe3ef"/>
  <rect x="690" y="283" width="135" height="135" rx="28" fill="#eef2ff" stroke="#c7d2fe" stroke-width="4"/>
  <path d="M728 344v-25c0-20 13-35 34-35s34 15 34 35v25" fill="none" stroke="#4f46e5" stroke-width="10" stroke-linecap="round"/>
  <rect x="718" y="337" width="80" height="62" rx="16" fill="#4f46e5"/>
  <path d="M250 552h700l58 58H192z" fill="#e2e8f0"/>
  <path d="M990 292c62 30 90 84 84 150" fill="none" stroke="#c7d2fe" stroke-width="8" stroke-linecap="round"/>
  <path d="M1043 414l31 31 31-31" fill="none" stroke="#c7d2fe" stroke-width="8" stroke-linecap="round" stroke-linejoin="round"/>
</svg>
