<svg xmlns="http://www.w3.org/2000/svg" width="1000" height="520" viewBox="0 0 1000 520" role="img" aria-labelledby="title desc">
  <title id="title">Research drifting into feed spot illustration</title>
  <desc id="desc">A reference page gently sliding toward a feed column, showing how work browsing can drift into distraction.</desc>
  <rect width="1000" height="520" rx="36" fill="#fbfbff"/>
  <rect x="145" y="120" width="320" height="290" rx="28" fill="#ffffff" stroke="#dbe3ef" stroke-width="4"/>
  <rect x="190" y="176" width="160" height="22" rx="11" fill="#c7d2fe"/>
  <rect x="190" y="238" width="220" height="16" rx="8" fill="#e2e8f0"/>
  <rect x="190" y="284" width="190" height="16" rx="8" fill="#e2e8f0"/>
  <rect x="190" y="330" width="230" height="16" rx="8" fill="#e2e8f0"/>
  <path d="M480 260c58-45 104-44 158 2" fill="none" stroke="#c7d2fe" stroke-width="14" stroke-linecap="round"/>
  <path d="M610 224l32 40-46 22" fill="none" stroke="#c7d2fe" stroke-width="14" stroke-linecap="round" stroke-linejoin="round"/>
  <rect x="620" y="100" width="250" height="340" rx="30" fill="#fff1f2" stroke="#fecdd3" stroke-width="4"/>
  <rect x="665" y="160" width="130" height="20" rx="10" fill="#fda4af"/>
  <rect x="665" y="224" width="165" height="16" rx="8" fill="#fecdd3"/>
  <rect x="665" y="272" width="130" height="16" rx="8" fill="#fecdd3"/>
  <rect x="665" y="320" width="150" height="16" rx="8" fill="#fecdd3"/>
  <circle cx="747" cy="390" r="20" fill="#fda4af"/>
</svg>
