<svg xmlns="http://www.w3.org/2000/svg" width="1000" height="520" viewBox="0 0 1000 520" role="img" aria-labelledby="title desc">
  <title id="title">Tired bedtime decision spot illustration</title>
  <desc id="desc">A sleepy browser window, dim clock, and a small decision switch showing how hard bedtime choices can feel when tired.</desc>
  <rect width="1000" height="520" rx="36" fill="#fbfbff"/>
  <circle cx="170" cy="120" r="92" fill="#eef2ff"/>
  <rect x="170" y="120" width="430" height="290" rx="28" fill="#ffffff" stroke="#dbe3ef" stroke-width="4"/>
  <rect x="170" y="120" width="430" height="62" rx="28" fill="#f8fafc"/>
  <circle cx="212" cy="151" r="8" fill="#fda4af"/>
  <circle cx="240" cy="151" r="8" fill="#fbbf24"/>
  <circle cx="268" cy="151" r="8" fill="#86efac"/>
  <rect x="230" y="228" width="230" height="22" rx="11" fill="#c7d2fe"/>
  <rect x="230" y="282" width="300" height="16" rx="8" fill="#e2e8f0"/>
  <rect x="230" y="326" width="240" height="16" rx="8" fill="#e2e8f0"/>
  <rect x="645" y="155" width="190" height="190" rx="95" fill="#ffffff" stroke="#dbe3ef" stroke-width="4"/>
  <circle cx="740" cy="250" r="62" fill="#f8fafc"/>
  <path d="M740 216v39l30 22" fill="none" stroke="#64748b" stroke-width="10" stroke-linecap="round"/>
  <path d="M688 408h188" stroke="#cbd5e1" stroke-width="22" stroke-linecap="round"/>
  <circle cx="720" cy="408" r="34" fill="#4f46e5"/>
  <path d="M150 430c90 32 172 32 246 0" fill="none" stroke="#bbf7d0" stroke-width="10" stroke-linecap="round"/>
</svg>
