<svg xmlns="http://www.w3.org/2000/svg" width="1200" height="520" viewBox="0 0 1200 520" role="img" aria-labelledby="title desc">
  <title id="title">Work focus configuration flow</title>
  <desc id="desc">A visual sequence for selecting a work window, adding high-risk sites, using reminders, and choosing the next action.</desc>
  <rect width="1200" height="520" fill="#fbfbff"/>
  <path d="M140 260h920" stroke="#c7d2fe" stroke-width="10" stroke-linecap="round"/>
  <g fill="#ffffff" stroke="#dbe3ef" stroke-width="4">
    <circle cx="180" cy="260" r="78"/>
    <circle cx="460" cy="260" r="78"/>
    <circle cx="740" cy="260" r="78"/>
    <circle cx="1020" cy="260" r="78"/>
  </g>
  <g fill="#eef2ff">
    <rect x="143" y="222" width="74" height="74" rx="20"/>
    <rect x="423" y="222" width="74" height="74" rx="20"/>
    <rect x="703" y="222" width="74" height="74" rx="20"/>
    <rect x="983" y="222" width="74" height="74" rx="20"/>
  </g>
  <path d="M180 235v30l22 17" fill="none" stroke="#4f46e5" stroke-width="8" stroke-linecap="round"/>
  <path d="M438 247h44M438 274h44" stroke="#4f46e5" stroke-width="8" stroke-linecap="round"/>
  <path d="M720 246h40M720 272h26" stroke="#4f46e5" stroke-width="8" stroke-linecap="round"/>
  <path d="M1001 265l18 18 35-48" fill="none" stroke="#4f46e5" stroke-width="9" stroke-linecap="round" stroke-linejoin="round"/>
  <g fill="#64748b">
    <rect x="115" y="365" width="130" height="14" rx="7"/>
    <rect x="392" y="365" width="136" height="14" rx="7"/>
    <rect x="675" y="365" width="130" height="14" rx="7"/>
    <rect x="946" y="365" width="148" height="14" rx="7"/>
  </g>
</svg>
