<svg xmlns="http://www.w3.org/2000/svg" width="1200" height="680" viewBox="0 0 1200 680" role="img" aria-labelledby="title desc">
  <title id="title">Work focus rule group illustration</title>
  <desc id="desc">A calm work desk with a task list and distracting feed behind a soft boundary.</desc>
  <rect width="1200" height="680" fill="#f7f7fb"/>
  <rect x="110" y="110" width="980" height="470" rx="38" fill="#ffffff" stroke="#dbe3ef" stroke-width="4"/>
  <rect x="160" y="170" width="390" height="340" rx="28" fill="#f8fafc" stroke="#dbe3ef" stroke-width="4"/>
  <rect x="210" y="225" width="220" height="24" rx="12" fill="#c7d2fe"/>
  <g fill="#ffffff" stroke="#cbd5e1" stroke-width="4">
    <rect x="210" y="295" width="280" height="46" rx="14"/>
    <rect x="210" y="365" width="280" height="46" rx="14"/>
    <rect x="210" y="435" width="280" height="46" rx="14"/>
  </g>
  <path d="M230 318l14 13 29-32M230 388l14 13 29-32" fill="none" stroke="#059669" stroke-width="8" stroke-linecap="round" stroke-linejoin="round"/>
  <circle cx="250" cy="458" r="11" fill="#cbd5e1"/>
  <rect x="625" y="170" width="365" height="340" rx="28" fill="#fff1f2" stroke="#fecdd3" stroke-width="4"/>
  <rect x="675" y="230" width="205" height="22" rx="11" fill="#fda4af"/>
  <rect x="675" y="285" width="250" height="18" rx="9" fill="#fecdd3"/>
  <rect x="675" y="333" width="210" height="18" rx="9" fill="#fecdd3"/>
  <rect x="675" y="381" width="245" height="18" rx="9" fill="#fecdd3"/>
  <path d="M601 205v270" stroke="#4f46e5" stroke-width="16" stroke-linecap="round"/>
  <path d="M581 230l20-28 20 28M581 450l20 28 20-28" fill="none" stroke="#4f46e5" stroke-width="12" stroke-linecap="round" stroke-linejoin="round"/>
  <circle cx="970" cy="135" r="70" fill="#ecfdf5"/>
  <path d="M946 135h48M970 111v48" stroke="#059669" stroke-width="10" stroke-linecap="round"/>
</svg>
