<svg width="1400" height="560" viewBox="0 0 1400 560" fill="none" xmlns="http://www.w3.org/2000/svg" role="img" aria-labelledby="title desc">
  <title id="title">FocusGate / 守界 Chrome Web Store marquee source</title>
  <desc id="desc">Editable source template for the optional 1400 by 560 marquee promotional tile.</desc>
  <defs>
    <linearGradient id="marqueeMarkGradient" x1="0" y1="0" x2="1" y2="1">
      <stop stop-color="#6366f1"/>
      <stop offset="1" stop-color="#a78bfa"/>
    </linearGradient>
    <filter id="panelShadow" x="-20%" y="-20%" width="140%" height="140%">
      <feDropShadow dx="0" dy="22" stdDeviation="24" flood-color="#334155" flood-opacity="0.13"/>
    </filter>
  </defs>

  <rect width="1400" height="560" fill="#f7f7fb"/>
  <path d="M0 420 C170 360 292 436 466 370 C650 300 775 210 980 252 C1168 290 1265 222 1400 178 V560 H0 Z" fill="#eef2ff"/>
  <path d="M0 0 H1400 V560 H0 Z" fill="#fff" opacity="0.2"/>

  <g transform="translate(95 86)">
    <g>
      <circle cx="48" cy="48" r="46" fill="white" stroke="#e0e7ff" stroke-width="2"/>
      <rect x="23" y="20" width="50" height="58" rx="7" fill="#eef2ff" stroke="url(#marqueeMarkGradient)" stroke-width="3"/>
      <path d="M23 39 Q48 17 73 39" stroke="url(#marqueeMarkGradient)" stroke-width="3" fill="none" stroke-linecap="round"/>
      <line x1="48" y1="39" x2="48" y2="78" stroke="#a5b4fc" stroke-width="1.5" stroke-dasharray="4 4"/>
      <rect x="39" y="53" width="19" height="14" rx="4" fill="url(#marqueeMarkGradient)"/>
      <path d="M43 53 V48 A5.5 5.5 0 0 1 54 48 V53" stroke="url(#marqueeMarkGradient)" stroke-width="3" fill="none" stroke-linecap="round"/>
      <circle cx="48.5" cy="60" r="2.3" fill="white"/>
    </g>

    <text x="0" y="156" fill="#475569" font-family="Inter, PingFang SC, Microsoft YaHei, sans-serif" font-size="24" font-weight="750">FocusGate / 守界</text>
    <text x="0" y="224" fill="#020617" font-family="Inter, PingFang SC, Microsoft YaHei, sans-serif" font-size="56" font-weight="850">该专注时，</text>
    <text x="0" y="292" fill="#4f46e5" font-family="Inter, PingFang SC, Microsoft YaHei, sans-serif" font-size="56" font-weight="850">守住你的注意力边界。</text>
    <text x="0" y="346" fill="#475569" font-family="Inter, PingFang SC, Microsoft YaHei, sans-serif" font-size="24" font-weight="500">用规则组为睡眠、工作和戒断场景建立可执行的网站边界。</text>

    <g transform="translate(0 386)">
      <rect x="0" y="0" width="92" height="36" rx="10" fill="#eef2ff" stroke="#c7d2fe"/>
      <text x="46" y="24" text-anchor="middle" fill="#4338ca" font-family="Inter, PingFang SC, Microsoft YaHei, sans-serif" font-size="16" font-weight="750">晚安守护</text>
      <rect x="108" y="0" width="124" height="36" rx="10" fill="#f0f9ff" stroke="#bae6fd"/>
      <text x="170" y="24" text-anchor="middle" fill="#0369a1" font-family="Inter, PingFang SC, Microsoft YaHei, sans-serif" font-size="16" font-weight="750">工作时间专注</text>
      <rect x="248" y="0" width="92" height="36" rx="10" fill="#ecfdf5" stroke="#bbf7d0"/>
      <text x="294" y="24" text-anchor="middle" fill="#047857" font-family="Inter, PingFang SC, Microsoft YaHei, sans-serif" font-size="16" font-weight="750">周末戒断</text>
    </g>
  </g>

  <g transform="translate(805 72)" filter="url(#panelShadow)">
    <rect x="0" y="0" width="470" height="346" rx="24" fill="white" stroke="#e2e8f0"/>
    <rect x="24" y="24" width="422" height="82" rx="16" fill="#f8fafc" stroke="#e2e8f0"/>
    <circle cx="62" cy="65" r="22" fill="#eef2ff" stroke="#c7d2fe"/>
    <path d="M53 65 H71 M62 56 V74" stroke="#4f46e5" stroke-width="3" stroke-linecap="round"/>
    <text x="98" y="58" fill="#020617" font-family="Inter, PingFang SC, Microsoft YaHei, sans-serif" font-size="22" font-weight="800">规则组正在生效</text>
    <text x="98" y="84" fill="#64748b" font-family="Inter, PingFang SC, Microsoft YaHei, sans-serif" font-size="15" font-weight="500">23:00-07:00 · bilibili.com</text>

    <g transform="translate(24 130)">
      <rect x="0" y="0" width="196" height="74" rx="14" fill="#eef2ff" stroke="#c7d2fe"/>
      <text x="18" y="31" fill="#4338ca" font-family="Inter, PingFang SC, Microsoft YaHei, sans-serif" font-size="14" font-weight="700">晚安守护</text>
      <text x="18" y="55" fill="#1e293b" font-family="Inter, PingFang SC, Microsoft YaHei, sans-serif" font-size="18" font-weight="800">已拦截 12 次</text>
      <rect x="226" y="0" width="196" height="74" rx="14" fill="#fff7ed" stroke="#fed7aa"/>
      <text x="244" y="31" fill="#c2410c" font-family="Inter, PingFang SC, Microsoft YaHei, sans-serif" font-size="14" font-weight="700">提前提醒</text>
      <text x="244" y="55" fill="#1e293b" font-family="Inter, PingFang SC, Microsoft YaHei, sans-serif" font-size="18" font-weight="800">还剩 30 分钟</text>
    </g>

    <g transform="translate(24 228)">
      <rect x="0" y="0" width="422" height="72" rx="16" fill="#f8fafc" stroke="#e2e8f0"/>
      <text x="20" y="30" fill="#020617" font-family="Inter, PingFang SC, Microsoft YaHei, sans-serif" font-size="18" font-weight="800">已拦截访问：bilibili.com</text>
      <text x="20" y="55" fill="#64748b" font-family="Inter, PingFang SC, Microsoft YaHei, sans-serif" font-size="14" font-weight="500">关闭页面 · 临时解锁需要冷静确认</text>
    </g>
  </g>

  <g transform="translate(925 396)" filter="url(#panelShadow)">
    <rect x="0" y="0" width="310" height="98" rx="18" fill="white" stroke="#e2e8f0"/>
    <circle cx="48" cy="49" r="22" fill="#fef3c7" stroke="#fde68a"/>
    <path d="M42 49 H54 M48 43 V55" stroke="#b45309" stroke-width="3" stroke-linecap="round"/>
    <text x="84" y="42" fill="#020617" font-family="Inter, PingFang SC, Microsoft YaHei, sans-serif" font-size="17" font-weight="800">30 分钟后进入限制时间</text>
    <text x="84" y="66" fill="#64748b" font-family="Inter, PingFang SC, Microsoft YaHei, sans-serif" font-size="13" font-weight="500">现在适合收尾、保存进度。</text>
  </g>

  <text x="1276" y="522" text-anchor="end" fill="#94a3b8" font-family="Inter, PingFang SC, Microsoft YaHei, sans-serif" font-size="12" font-weight="650">SOURCE TEMPLATE</text>
</svg>
