<svg width="440" height="280" viewBox="0 0 440 280" fill="none" xmlns="http://www.w3.org/2000/svg" role="img" aria-labelledby="title desc">
  <title id="title">FocusGate / 守界 Chrome Web Store small promotional tile source</title>
  <desc id="desc">Editable source template for the required 440 by 280 promotional tile.</desc>
  <defs>
    <linearGradient id="tileMarkGradient" x1="0" y1="0" x2="1" y2="1">
      <stop stop-color="#6366f1"/>
      <stop offset="1" stop-color="#a78bfa"/>
    </linearGradient>
    <filter id="softShadow" x="-20%" y="-20%" width="140%" height="140%">
      <feDropShadow dx="0" dy="18" stdDeviation="18" flood-color="#334155" flood-opacity="0.14"/>
    </filter>
  </defs>

  <rect width="440" height="280" fill="#f7f7fb"/>
  <path d="M0 205 C80 178 128 210 206 182 C284 154 342 122 440 146 L440 280 L0 280 Z" fill="#eef2ff"/>
  <g filter="url(#softShadow)">
    <rect x="35" y="34" width="370" height="212" rx="22" fill="white" stroke="#e2e8f0"/>
  </g>

  <g transform="translate(64 62)">
    <circle cx="52" cy="52" r="48" fill="white" stroke="#e0e7ff" stroke-width="2"/>
    <rect x="25" y="22" width="54" height="62" rx="7" fill="#eef2ff" stroke="url(#tileMarkGradient)" stroke-width="3"/>
    <path d="M25 42 Q52 18 79 42" stroke="url(#tileMarkGradient)" stroke-width="3" fill="none" stroke-linecap="round"/>
    <line x1="52" y1="42" x2="52" y2="84" stroke="#a5b4fc" stroke-width="1.6" stroke-dasharray="4 4"/>
    <rect x="42" y="56" width="20" height="15" rx="4" fill="url(#tileMarkGradient)"/>
    <path d="M46 56 V50 A6 6 0 0 1 58 50 V56" stroke="url(#tileMarkGradient)" stroke-width="3" fill="none" stroke-linecap="round"/>
    <circle cx="52" cy="63.5" r="2.4" fill="white"/>
  </g>

  <g transform="translate(190 67)">
    <text x="0" y="0" fill="#475569" font-family="Inter, PingFang SC, Microsoft YaHei, sans-serif" font-size="15" font-weight="700">FocusGate / 守界</text>
    <text x="0" y="48" fill="#020617" font-family="Inter, PingFang SC, Microsoft YaHei, sans-serif" font-size="34" font-weight="800">守住</text>
    <text x="0" y="88" fill="#4f46e5" font-family="Inter, PingFang SC, Microsoft YaHei, sans-serif" font-size="34" font-weight="800">注意力边界</text>
    <g transform="translate(0 118)">
      <rect x="0" y="0" width="42" height="24" rx="8" fill="#eef2ff" stroke="#c7d2fe"/>
      <text x="21" y="16" text-anchor="middle" fill="#4338ca" font-family="Inter, PingFang SC, Microsoft YaHei, sans-serif" font-size="12" font-weight="700">睡眠</text>
      <rect x="52" y="0" width="42" height="24" rx="8" fill="#f0f9ff" stroke="#bae6fd"/>
      <text x="73" y="16" text-anchor="middle" fill="#0369a1" font-family="Inter, PingFang SC, Microsoft YaHei, sans-serif" font-size="12" font-weight="700">工作</text>
      <rect x="104" y="0" width="42" height="24" rx="8" fill="#ecfdf5" stroke="#bbf7d0"/>
      <text x="125" y="16" text-anchor="middle" fill="#047857" font-family="Inter, PingFang SC, Microsoft YaHei, sans-serif" font-size="12" font-weight="700">戒断</text>
    </g>
  </g>

  <text x="405" y="238" text-anchor="end" fill="#94a3b8" font-family="Inter, PingFang SC, Microsoft YaHei, sans-serif" font-size="10" font-weight="600">SOURCE TEMPLATE</text>
</svg>
